<?xml version="1.0" encoding="UTF-8"?>
<svg width="16px" height="16px" viewBox="0 0 16 16" version="1.1" xmlns="http://www.w3.org/2000/svg" xmlns:xlink="http://www.w3.org/1999/xlink">
    <!-- Generator: Sketch 55.2 (78181) - https://sketchapp.com -->
    <title>maintain</title>
    <desc>Created with Sketch.</desc>
    <g id="maintain" stroke="none" stroke-width="1" fill="none" fill-rule="evenodd">
        <g id="编组">
            <rect id="矩形" fill="#FFFFFF" opacity="0" x="0" y="0" width="16" height="16"></rect>
            <path d="M15.5633345,10.6135871 L13.9216815,8.97193408 C13.9732104,8.65558008 14,8.33091857 14,8 C14,4.6862915 11.3137085,2 8,2 C4.6862915,2 2,4.6862915 2,8 C2,11.3137085 4.6862915,14 8,14 C8.33091857,14 8.65558008,13.9732104 8.97193408,13.9216815 L10.6135871,15.5633345 C9.79455405,15.8463114 8.91522497,16 8,16 C3.581722,16 0,12.418278 0,8 C0,3.581722 3.581722,0 8,0 C12.418278,0 16,3.581722 16,8 C16,8.91522497 15.8463114,9.79455405 15.5633345,10.6135871 L15.5633345,10.6135871 Z M12.596,7.646 L11.182,9.06 L14.617,12.495 C14.049,13.329 13.329,14.049 12.495,14.616 L9.06,11.182 L7.646,12.596 L5.171,10.121 C4.186,9.135 3.922,7.711 4.358,6.479 L6.939,9.06 L9.06,6.939 L6.479,4.358 C7.711,3.922 9.136,4.186 10.121,5.171 L12.596,7.646 Z" id="Combined-Shape" fill="#FFFFFF" fill-rule="nonzero"></path>
        </g>
    </g>
</svg>