<?xml version="1.0" encoding="UTF-8"?>
<svg width="16px" height="16px" viewBox="0 0 16 16" version="1.1" xmlns="http://www.w3.org/2000/svg" xmlns:xlink="http://www.w3.org/1999/xlink">
    <!-- Generator: Sketch 52.3 (67297) - http://www.bohemiancoding.com/sketch -->
    <title>直播sdk</title>
    <desc>Created with Sketch.</desc>
    <g id="直播sdk" stroke="none" stroke-width="1" fill="none" fill-rule="evenodd">
        <path d="M9.84088318,8.44641619 L5.76418321,10.9438473 C5.52871322,11.0880988 5.22088813,11.0141516 5.07663663,10.7786816 C5.02847952,10.700072 5.00299277,10.6096789 5.00299277,10.5174911 L5.00299277,5.45026268 C5.00299277,5.17412031 5.22685039,4.95026268 5.50299277,4.95026268 C5.59735649,4.95026268 5.68979394,4.97696591 5.76962124,5.02728602 L9.84632122,7.59708339 C10.0799248,7.74433824 10.1499242,8.05308497 10.0026694,8.28668853 C9.96172138,8.35164804 9.90636169,8.40630333 9.84088318,8.44641619 Z M0.475717505,2.02445431 C1.29250901,-0.0977241813 3.05997311,-0.329792652 5.19036803,0.320164899 C6.23226855,0.638036059 8.60059242,1.63152411 10.4615646,2.64710549 C13.5213937,4.31693454 15.3867877,5.99399232 15.5011606,7.8807995 C15.704662,11.2379593 7.90307239,15.3830788 4.24947008,15.6338926 C2.01976728,15.7869581 0.575425808,14.7983163 0.281996414,12.9780947 C-0.0809651491,10.7265463 -0.168801556,3.69903648 0.475717505,2.02445431 Z M2.34224099,2.74284841 C1.86236721,3.98965105 1.94671547,10.7380853 2.25650503,12.6597934 C2.37480942,13.3936674 2.85839799,13.7246804 4.11249573,13.6385887 C6.79278337,13.4545913 13.6156144,9.82950317 13.5048249,8.00181167 C13.4490925,7.08239438 11.9589557,5.74270667 9.50349275,4.40269608 C7.76205508,3.45234783 5.5192247,2.51150303 4.60674936,2.23311792 C3.36226064,1.85343956 2.64848913,1.94715794 2.34224099,2.74284841 Z" id="Combined-Shape-Copy" fill="#FFFFFF"></path>
    </g>
</svg>