<?xml version="1.0" encoding="UTF-8"?>
<svg width="16px" height="16px" viewBox="0 0 16 16" version="1.1" xmlns="http://www.w3.org/2000/svg" xmlns:xlink="http://www.w3.org/1999/xlink">
    <title>画板</title>
    <g id="画板" stroke="none" stroke-width="1" fill="none" fill-rule="evenodd">
        <g id="地址生成器-16px" fill-rule="nonzero">
            <rect id="矩形" fill="#7C878E" opacity="0" x="0" y="0" width="16" height="16"></rect>
            <path d="M14.71765,1.28225 C16.27965,2.84425 16.27965,5.37725 14.71765,6.93925 L11.88865,9.76725 L10.47465,8.35325 L13.30365,5.52525 C14.08265,4.74525 14.08265,3.47625 13.30365,2.69625 C12.52365,1.91725 11.25465,1.91725 10.47465,2.69625 L7.64665,5.52525 L6.23265,4.11125 L9.06065,1.28225 C10.62265,-0.27975 13.15565,-0.27975 14.71765,1.28225 Z M5.52535,13.30375 L8.35335,10.47475 L9.76735,11.88875 L6.93935,14.71775 C5.37735,16.27975 2.84435,16.27975 1.28235,14.71775 C-0.27965,13.15575 -0.27965,10.62275 1.28235,9.06075 L4.11135,6.23275 L5.52535,7.64675 L2.69635,10.47475 C1.91735,11.25475 1.91735,12.52375 2.69635,13.30375 C3.47635,14.08275 4.74535,14.08275 5.52535,13.30375 Z M11.18155,6.23245 L6.23255,11.18145 L4.81855,9.76745 L9.76755,4.81845 L11.18155,6.23245 Z" id="Combined-Shape" fill="#7C878E"></path>
        </g>
    </g>
</svg>