<svg     width="16px"     height="16px"   viewBox="0 0 16 16" version="1.1" xmlns="http://www.w3.org/2000/svg" xmlns:xlink="http://www.w3.org/1999/xlink">
    <title>游戏多媒体引擎 GME-16px</title>
    <g id="游戏多媒体引擎-GME-16px" stroke="none" stroke-width="1" fill="none" fill-rule="evenodd">
        <g id="编组">
            <path d="M2,9 C2,11.7614237 4.23857625,14 7,14 C9.76142375,14 12,11.7614237 12,9 L14,9 C14,12.8659932 10.8659932,16 7,16 C3.13400675,16 0,12.8659932 0,9 L2,9 Z M7,0 C8.86392711,0 10.4300871,1.27489272 10.8740452,3.00024347 L8.73239368,2.99992752 C8.38657394,2.40216612 7.74025244,2 7,2 C5.8954305,2 5,2.8954305 5,4 L5,5 L7,5 L7,7 L5,7 L5,8 L7,8 L7,10 L5.26818814,10.0010775 C5.61415066,10.5982846 6.2601625,11 7,11 C8.1045695,11 9,10.1045695 9,9 L9,8 L11,8 L11,9 C11,11.209139 9.209139,13 7,13 C4.790861,13 3,11.209139 3,9 L3,4 C3,1.790861 4.790861,0 7,0 Z M14,2 L14,4 L16,4 L16,6 L14,6 L14,8 L12,8 L12,6 L10,6 L10,4 L12,4 L12,2 L14,2 Z" id="合并形状" fill="#7C878EFF" fill-rule="nonzero"></path>
            <rect id="矩形" x="0" y="0" width="16" height="16"></rect>
        </g>
    </g>
</svg>