<?xml version="1.0" encoding="UTF-8"?>
<svg width="16px" height="16px" viewBox="0 0 16 16" version="1.1" xmlns="http://www.w3.org/2000/svg" xmlns:xlink="http://www.w3.org/1999/xlink">
    <!-- Generator: Sketch 55.2 (78181) - https://sketchapp.com -->
    <title>notice</title>
    <desc>Created with Sketch.</desc>
    <g id="notice" stroke="none" stroke-width="1" fill="none" fill-rule="evenodd">
        <g id="编组">
            <rect id="矩形" fill="#FFFFFF" opacity="0" x="0" y="0" width="16" height="16"></rect>
            <path d="M5.55000906,14 L1,14 L1,12 L2,11 L2,7 C2,4.02700371 4.16228666,1.55903653 7,1.08295844 L7,0 L9,0 L9,1.08295844 C11.8377133,1.55903653 14,4.02700371 14,7 L14,11 L15,12 L15,14 L10.4499909,14 C10.2183558,15.1411202 9.20947896,16 8,16 C6.79052104,16 5.78164422,15.1411202 5.55000906,14 Z M4,12 L12,12 L12,7 C12,4.790861 10.209139,3 8,3 C5.790861,3 4,4.790861 4,7 L4,12 Z" id="Combined-Shape" fill="#FFFFFF"></path>
        </g>
    </g>
</svg>