<?xml version="1.0" encoding="UTF-8"?>
<svg width="16px" height="16px" viewBox="0 0 16 16" version="1.1" xmlns="http://www.w3.org/2000/svg" xmlns:xlink="http://www.w3.org/1999/xlink">
    <title>画板</title>
    <g id="画板" stroke="none" stroke-width="1" fill="none" fill-rule="evenodd">
        <g id="流管理-16px" fill-rule="nonzero">
            <rect id="矩形" fill="#7C878E" opacity="0" x="0" y="0" width="16" height="16"></rect>
            <path d="M3.50356904,14.6177513 L4.95204898,13.1692714 C5.84531886,13.6971059 6.88728708,14 8,14 C11.3137085,14 14,11.3137085 14,8 C14,6.88728708 13.6971059,5.84531886 13.1692714,4.95204898 L14.6177513,3.50356904 C15.4900987,4.7849821 16,6.33294414 16,8 C16,12.418278 12.418278,16 8,16 C6.33294414,16 4.7849821,15.4900987 3.50356904,14.6177513 Z M1.3822487,12.496431 C0.509901284,11.2150179 0,9.66705586 0,8 C0,3.581722 3.581722,0 8,0 C9.66705586,0 11.2150179,0.509901284 12.496431,1.3822487 L11.047951,2.83072864 C10.1546811,2.30289409 9.11271292,2 8,2 C4.6862915,2 2,4.6862915 2,8 C2,9.11271292 2.30289409,10.1546811 2.83072864,11.047951 L1.3822487,12.496431 Z M6,5 L11.196,8 L6,11 L6,5 Z" id="Combined-Shape" fill="#7C878E"></path>
        </g>
    </g>
</svg>