<?xml version="1.0" encoding="UTF-8"?>
<svg width="16px" height="16px" viewBox="0 0 16 16" version="1.1" xmlns="http://www.w3.org/2000/svg" xmlns:xlink="http://www.w3.org/1999/xlink">
    <!-- Generator: Sketch 54.1 (76490) - https://sketchapp.com -->
    <title>管理域名</title>
    <desc>Created with Sketch.</desc>
    <g id="管理域名" stroke="none" stroke-width="1" fill="none" fill-rule="evenodd">
        <path d="M2,12 L14,12 L14,4 L2,4 L2,12 Z M0,14 L0,2 L16,2 L16,14 L0,14 Z M2.6354949,5.00018148 L4.31354368,5.00018148 L4.91842173,8.35215965 L5.80037295,5.00018148 L7.47451929,5.00018148 L8.36037295,8.35215965 L8.96525099,5.00018148 L10.6354949,5.00018148 L9.37500709,11.0001815 L7.64232416,11.0001815 L6.63939734,7.22255529 L5.64037295,11.0001815 L3.90769002,11.0001815 L2.6354949,5.00018148 Z M11,11 L11,9 L13,9 L13,11 L11,11 Z" id="形状结合" fill="#7C878E"></path>
    </g>
</svg>