<?xml version="1.0" encoding="UTF-8"?>
<svg width="16px" height="16px" viewBox="0 0 16 16" version="1.1" xmlns="http://www.w3.org/2000/svg" xmlns:xlink="http://www.w3.org/1999/xlink">
    <title>应用云渲染-虚拟直播-16px备份</title>
    <g id="页面-1" stroke="none" stroke-width="1" fill="none" fill-rule="evenodd">
        <g id="应用云渲染-虚拟直播-16px备份">
            <rect id="矩形" x="0" y="0" width="16" height="16"></rect>
            <path d="M14.5,4.5 L14.5,14.5 L9.5,14.5 L8.25,13.75 L7.75,13.75 L6.5,14.5 L1.5,14.5 L1.5,4.5 L14.5,4.5 Z M12.5,6.5 L3.5,6.5 L3.5,12.5 L5.946,12.5 L7.19603207,11.75 L8.80396793,11.75 L10.053,12.5 L12.5,12.5 L12.5,6.5 Z M7,7.5 L7,10 L5,10 L5,7.5 L7,7.5 Z M11,7.5 L11,10 L9,10 L9,7.5 L11,7.5 Z M11.5,1.5 L11.5,3.5 L4.5,3.5 L4.5,1.5 L11.5,1.5 Z" id="形状" fill="#FFFFFF" fill-rule="nonzero"></path>
        </g>
    </g>
</svg>