<?xml version="1.0" encoding="UTF-8"?>
<svg width="162px" height="24px" viewBox="0 0 162 24" version="1.1" xmlns="http://www.w3.org/2000/svg" xmlns:xlink="http://www.w3.org/1999/xlink">
    <title>tencent-cloud-en-black</title>
    <defs>
        <polygon id="path-1" points="-4.86713091e-23 0 9.79547285 0 9.79547285 14.0562964 -4.86713091e-23 14.0562964"></polygon>
        <polygon id="path-3" points="0 24 162 24 162 0 0 0"></polygon>
        <polygon id="path-5" points="0 24 162 24 162 0 0 0"></polygon>
        <polygon id="path-7" points="0 24 162 24 162 0 0 0"></polygon>
        <polygon id="path-9" points="0 24 162 24 162 0 0 0"></polygon>
        <polygon id="path-11" points="0 24 162 24 162 0 0 0"></polygon>
        <polygon id="path-13" points="0 24 162 24 162 0 0 0"></polygon>
        <polygon id="path-15" points="0 24 162 24 162 0 0 0"></polygon>
        <polygon id="path-17" points="0 24 162 24 162 0 0 0"></polygon>
        <polygon id="path-19" points="0 24 162 24 162 0 0 0"></polygon>
        <polygon id="path-21" points="0 24 162 24 162 0 0 0"></polygon>
        <polygon id="path-23" points="0 24 162 24 162 0 0 0"></polygon>
        <polygon id="path-25" points="0 24 162 24 162 0 0 0"></polygon>
    </defs>
    <g id="页面-1" stroke="none" stroke-width="1" fill="none" fill-rule="evenodd">
        <g id="tencent-cloud-en-black">
            <path d="M123.734962,15.3713158 C123.734962,15.2797267 123.622368,15.2355053 123.561001,15.3033232 C122.446077,16.5361047 120.748777,17.5738225 118.594108,17.5738225 C115.397072,17.5738225 113.33122,15.3655478 113.33122,11.9480879 C113.33122,8.46560677 115.299339,6.30242737 118.468227,6.30242737 C120.310815,6.30242737 122.231204,7.18353495 123.379522,8.37611519 C123.442113,8.4413112 123.551385,8.39691499 123.551385,8.30654946 L123.551385,6.54433431 C122.256206,5.3781471 120.378476,4.67549833 118.467702,4.67549833 C116.477903,4.67549833 114.792842,5.37080599 113.595046,6.68643716 C112.409139,7.98948357 111.78218,9.80885448 111.78218,11.9480879 C111.78218,16.2980431 114.519749,19.2205027 118.594108,19.2205027 C120.53845,19.2205027 122.436286,18.4998507 123.734962,17.3011529 L123.734962,15.3713158 Z" id="Fill-1" fill="#000000" fill-rule="nonzero"></path>
            <polygon id="Fill-3" fill="#000000" fill-rule="nonzero" points="36.8128573 5.03816647 36.8128573 6.54851175 41.5905781 6.54851175 41.5905781 18.8604214 43.2441692 18.8604214 43.2441692 6.54851175 48.02189 6.54851175 48.02189 5.03816647"></polygon>
            <g id="Fill-5-Clipped" transform="translate(152.204527, 5.059770)">
                <mask id="mask-2" fill="white">
                    <use xlink:href="#path-1"></use>
                </mask>
                <g id="path-1"></g>
                <path d="M8.10308584,8.75706618 C8.10308584,10.6440801 7.00721897,12.5543409 4.91269357,12.5543409 C3.33970151,12.5543409 1.64677251,11.390426 1.64677251,8.8355461 C1.64677251,6.95832028 2.63808795,4.9377681 4.81461104,4.9377681 C7.24184777,4.9377681 8.10308584,6.99520061 8.10308584,8.75706618 L8.10308584,8.75706618 Z M8.14679463,4.70145438 C7.2916758,3.77490186 5.86222341,3.43825969 4.83366807,3.43825969 C3.45981327,3.43825969 2.22635111,3.95056406 1.36074216,4.88078713 C0.47065629,5.83775281 -4.86713091e-23,7.16457042 -4.86713091e-23,8.71791361 C-4.86713091e-23,12.4055961 2.44734278,14.0562964 4.87283115,14.0562964 C6.28987024,14.0562964 7.45934273,13.5499348 8.14679463,12.6536207 L8.14679463,13.8210314 L9.79549033,13.8210314 L9.79549033,0 L8.14679463,0 L8.14679463,4.70145438 Z" id="Fill-5" fill="#000000" fill-rule="nonzero" mask="url(#mask-2)"></path>
            </g>
            <g id="Fill-7-Clipped">
                <mask id="mask-4" fill="white">
                    <use xlink:href="#path-3"></use>
                </mask>
                <g id="path-3"></g>
                <polygon id="Fill-7" fill="#000000" fill-rule="nonzero" mask="url(#mask-4)" points="125.923286 18.8806269 127.596983 18.8806269 127.596983 5.05994509 125.923286 5.05994509"></polygon>
            </g>
            <g id="Fill-9-Clipped">
                <mask id="mask-6" fill="white">
                    <use xlink:href="#path-5"></use>
                </mask>
                <g id="path-3"></g>
                <path d="M77.7411073,16.32122 C77.7411073,16.2343503 77.6384791,16.1887305 77.5739649,16.246935 C76.4969802,17.2191073 74.9329047,17.5978734 74.2492992,17.5978734 C72.030466,17.5978734 70.5966427,16.1104254 70.5966427,13.8084641 C70.5966427,11.5063281 72.030466,10.01888 74.2492992,10.01888 C74.9350028,10.01888 76.4509986,10.2107975 77.5757132,11.1810471 C77.6405771,11.2369794 77.7411073,11.1908353 77.7411073,11.105189 L77.7411073,9.5820842 C77.0632713,9.15560087 75.6366163,8.49699874 74.1611823,8.49699874 C71.0964965,8.49699874 69.0372878,10.6315129 69.0372878,13.8084641 C69.0372878,16.9852406 71.0964965,19.1197547 74.1611823,19.1197547 C75.4282128,19.1197547 76.6698922,18.7780437 77.7411073,18.0304743 L77.7411073,16.32122 Z" id="Fill-9" fill="#000000" fill-rule="nonzero" mask="url(#mask-6)"></path>
            </g>
            <g id="Fill-10-Clipped">
                <mask id="mask-8" fill="white">
                    <use xlink:href="#path-7"></use>
                </mask>
                <g id="path-3"></g>
                <path d="M55.025927,12.8551515 L48.8505738,12.8551515 L48.8530215,12.824214 C48.9198085,11.9436308 49.3086419,11.1857489 49.9775613,10.6325441 C50.5115079,10.191029 51.2153943,9.94754896 51.9594928,9.94754896 C53.7622183,9.94754896 54.9365862,11.050288 55.0243535,12.8252627 L55.025927,12.8551515 Z M56.1275634,15.9953972 C56.1275634,15.898215 56.0053536,15.8587128 55.9467838,15.9359692 C55.2119516,16.9037718 53.4541588,17.6854248 52.3733277,17.6854248 C51.3402267,17.6854248 50.3690173,17.3449373 49.8387422,16.7966266 C49.1948242,16.1310329 48.8456784,15.216366 48.8538956,14.2765296 L56.5893031,14.2765296 L56.5893031,14.1581979 C56.5893031,11.9773649 56.2176035,10.7405633 55.2633531,9.74776599 C54.4664544,8.91857052 53.3698882,8.49802999 52.003901,8.49802999 C49.110204,8.49802999 47.2403418,10.5683968 47.2403418,13.7764604 C47.3459423,17.1142168 49.2427291,19.1068029 52.3140586,19.1068029 C53.7783032,19.1068029 55.0177097,18.6139 56.1275634,17.6452235 L56.1275634,15.9953972 Z" id="Fill-10" fill="#000000" fill-rule="nonzero" mask="url(#mask-8)"></path>
            </g>
            <g id="Fill-11-Clipped">
                <mask id="mask-10" fill="white">
                    <use xlink:href="#path-9"></use>
                </mask>
                <g id="path-3"></g>
                <path d="M148.684483,13.8958582 C148.684483,16.648948 147.09628,17.6258395 145.736063,17.6258395 C144.417806,17.6258395 143.016851,16.7144936 143.016851,15.0255147 L143.016851,8.73366203 L141.44316,8.73366203 L141.44316,14.9973738 C141.44316,17.4227356 143.175427,19.1166085 145.655639,19.1166085 C147.029319,19.1166085 148.101583,18.653944 148.782391,17.7733608 L148.782391,18.8780226 L150.283176,18.8780226 L150.283176,8.73366203 L148.684483,8.73366203 L148.684483,13.8958582 Z" id="Fill-11" fill="#000000" fill-rule="nonzero" mask="url(#mask-10)"></path>
            </g>
            <g id="Fill-12-Clipped">
                <mask id="mask-12" fill="white">
                    <use xlink:href="#path-11"></use>
                </mask>
                <g id="path-3"></g>
                <path d="M63.0886609,8.49858931 C61.8225045,8.49858931 60.7502404,8.92157688 60.0306188,9.69693756 L60.0306188,8.7279115 L58.4684665,8.7279115 L58.4684665,18.8808367 L60.0655859,18.8808367 L60.0655859,13.0956951 C60.0655859,12.1401277 60.3579103,11.3277119 60.8887099,10.8082413 C61.4609454,10.2480449 62.167804,9.98883394 63.0465256,10.0157513 C64.2981706,10.0535056 65.5610051,10.8818271 65.5610051,12.6468389 L65.5610051,18.8806619 L67.1582992,18.8806619 L67.1582992,12.5720295 C67.1582992,11.3208952 66.7610737,10.2788077 66.0094573,9.55780612 C65.2868635,8.86494549 64.2770155,8.49858931 63.0886609,8.49858931" id="Fill-12" fill="#000000" fill-rule="nonzero" mask="url(#mask-12)"></path>
            </g>
            <g id="Fill-13-Clipped">
                <mask id="mask-14" fill="white">
                    <use xlink:href="#path-13"></use>
                </mask>
                <g id="path-3"></g>
                <path d="M87.0718158,12.8551515 L80.8964626,12.8551515 L80.8989103,12.824214 C80.9658722,11.9436308 81.3545308,11.1857489 82.0234501,10.6325441 C82.5573968,10.191029 83.2612832,9.94754896 84.0053817,9.94754896 C85.8081072,9.94754896 86.982475,11.050288 87.0702423,12.8252627 L87.0718158,12.8551515 Z M88.1734523,15.9953972 C88.1734523,15.898215 88.0514173,15.8587128 87.9926727,15.9359692 C87.2578404,16.9037718 85.5000476,17.6854248 84.4192165,17.6854248 C83.3861155,17.6854248 82.4150809,17.3449373 81.884631,16.7966266 C81.2407131,16.1310329 80.8917421,15.216366 80.8997845,14.2765296 L88.6351919,14.2765296 L88.6351919,14.1581979 C88.6351919,11.9773649 88.2634924,10.7405633 87.309242,9.74776599 C86.5123433,8.91857052 85.415777,8.49802999 84.0497898,8.49802999 C81.1560928,8.49802999 79.2862307,10.5683968 79.2862307,13.7764604 C79.3918311,17.1142168 81.2886179,19.1068029 84.3599474,19.1068029 C85.824192,19.1068029 87.0635986,18.6139 88.1734523,17.6452235 L88.1734523,15.9953972 Z" id="Fill-13" fill="#000000" fill-rule="nonzero" mask="url(#mask-14)"></path>
            </g>
            <g id="Fill-14-Clipped">
                <mask id="mask-16" fill="white">
                    <use xlink:href="#path-15"></use>
                </mask>
                <g id="path-3"></g>
                <path d="M95.1086042,8.49858931 C93.8424478,8.49858931 92.7701837,8.92157688 92.0505621,9.69693756 L92.0505621,8.7279115 L90.4884098,8.7279115 L90.4884098,18.8808367 L92.0855292,18.8808367 L92.0855292,13.0956951 C92.0855292,12.1401277 92.3778536,11.3277119 92.9086532,10.8082413 C93.4808887,10.2480449 94.1877473,9.98883394 95.0664689,10.0157513 C96.3181139,10.0535056 97.5809484,10.8818271 97.5809484,12.6468389 L97.5809484,18.8806619 L99.1782425,18.8806619 L99.1782425,12.5720295 C99.1782425,11.3208952 98.781017,10.2788077 98.0294006,9.55780612 C97.3068068,8.86494549 96.2969588,8.49858931 95.1086042,8.49858931" id="Fill-14" fill="#000000" fill-rule="nonzero" mask="url(#mask-16)"></path>
            </g>
            <g id="Fill-15-Clipped">
                <mask id="mask-18" fill="white">
                    <use xlink:href="#path-17"></use>
                </mask>
                <g id="path-3"></g>
                <path d="M104.401845,19.0155812 C105.370957,18.9624453 106.48151,18.5434778 106.48151,18.5434778 L106.48151,17.0144302 C106.48151,16.9450393 106.413499,16.8962734 106.348111,16.9193454 C105.969243,17.0528836 105.091395,17.3239802 104.636125,17.389351 C104.469332,17.4160936 104.322121,17.4395153 104.212499,17.3461783 C104.140117,17.2844781 104.103402,17.2021528 104.103402,17.023694 L104.103402,10.2036312 L107.02717,10.2036312 L107.02717,8.7266705 L104.103402,8.7266705 L104.103402,6.02129795 L102.443692,6.02129795 L102.443692,8.7266705 L100.777687,8.7266705 L100.777687,10.2036312 L102.443692,10.2036312 L102.443692,17.1839748 C102.443692,17.7843725 102.626569,18.2489596 102.987254,18.5651516 C103.324511,18.8608933 103.816497,19.0157557 104.401845,19.0155812" id="Fill-15" fill="#000000" fill-rule="nonzero" mask="url(#mask-18)"></path>
            </g>
            <g id="Fill-16-Clipped">
                <mask id="mask-20" fill="white">
                    <use xlink:href="#path-19"></use>
                </mask>
                <g id="path-3"></g>
                <path d="M131.313664,13.8064191 L131.31279,13.8027485 C131.31891,11.5563699 132.682624,10.0482969 134.709838,10.0482969 C136.741597,10.0482969 138.10671,11.5628371 138.10706,13.8169064 C138.106535,16.0704513 136.741248,17.5853411 134.709838,17.5853411 C132.679477,17.5853411 131.315413,16.0585657 131.313664,13.8064191 M134.709838,8.51802577 C131.764564,8.51802577 129.785605,10.647471 129.785605,13.8169064 C129.785605,16.986167 131.764564,19.115787 134.709838,19.115787 C137.655286,19.115787 139.634245,16.986167 139.634245,13.8169064 C139.634245,10.647471 137.655286,8.51802577 134.709838,8.51802577" id="Fill-16" fill="#000000" fill-rule="nonzero" mask="url(#mask-20)"></path>
            </g>
            <g id="Fill-17-Clipped">
                <mask id="mask-22" fill="white">
                    <use xlink:href="#path-21"></use>
                </mask>
                <g id="path-3"></g>
                <path d="M28.7496863,19.6502196 C28.1589183,20.2347115 27.1050118,20.8985573 25.3753675,20.9572861 C24.5756714,20.9845531 23.6420515,20.9871749 23.2145795,20.9871749 L13.9203416,20.9871749 C17.3016539,17.7037776 20.2516478,14.8398721 20.5861075,14.5152903 C20.8925936,14.2172764 21.5824932,13.5581499 22.1769328,13.0225987 C23.4820773,11.847672 24.6573194,11.6110087 25.4884858,11.6186994 C26.790833,11.630585 27.9751665,12.1624657 28.8224178,13.0205012 C30.6331857,14.871334 30.5905259,17.8287512 28.7496863,19.6502196 M30.9760374,10.9143028 C29.586972,9.49834315 27.6518963,8.60604913 25.4996753,8.60604913 C23.6399535,8.60604913 22.0386381,9.24699765 20.6404813,10.3857431 C20.030831,10.8814426 19.3912839,11.4753731 18.5873918,12.2566765 C18.1878934,12.6441821 6.60593727,23.8795709 6.60593727,23.8795709 C7.21279016,23.9662659 8.04797779,23.9921345 8.79242597,23.9970286 C9.49001831,24.0012235 22.7970731,23.9998252 23.3542728,23.9998252 C24.4751411,23.9998252 25.2049032,23.9984269 25.9890389,23.9410964 C27.7859948,23.8098304 29.4843437,23.1507039 30.8573244,21.8032613 C33.9048763,18.8110612 33.9510328,13.9540453 30.9760374,10.9143028" id="Fill-17" fill="#00A1FF" fill-rule="nonzero" mask="url(#mask-22)"></path>
            </g>
            <g id="Fill-18-Clipped">
                <mask id="mask-24" fill="white">
                    <use xlink:href="#path-23"></use>
                </mask>
                <g id="path-3"></g>
                <path d="M12.2894791,10.1916757 C10.927688,9.17318457 9.40382457,8.60407402 7.67610338,8.60615995 C5.52388238,8.60615995 3.58880666,9.4984655 2.1997412,10.9142503 C-0.775254132,13.9539928 -0.729796986,18.8110087 2.31845428,21.8035584 C3.54265018,23.0050528 5.02525246,23.6584113 6.60628694,23.8791689 L9.58827568,20.9865981 C9.1057306,20.9845007 8.41425748,20.9775091 7.79971185,20.9572337 C6.0707668,20.8979805 5.01686037,20.2346591 4.42609232,19.6503419 C2.58525276,17.8286988 2.54259298,14.8712816 4.35336088,13.0206236 C5.1999128,12.162588 6.38424627,11.6312317 7.68659349,11.618647 C8.50307375,11.615326 9.61065459,11.8518145 10.8619499,12.8893576 C11.4590121,13.3843579 12.786011,14.5503703 13.3676877,15.0747351 C13.3977593,15.1011281 13.4332508,15.1039247 13.4675185,15.0752595 L15.5213073,13.0721861 C15.5562744,13.0381024 15.5541763,12.9914339 15.5193841,12.959972 C14.5319151,12.0675032 13.1323595,10.8186412 12.2894791,10.1916757" id="Fill-18" fill="#00C4D6" fill-rule="nonzero" mask="url(#mask-24)"></path>
            </g>
            <g id="Fill-19-Clipped">
                <mask id="mask-26" fill="white">
                    <use xlink:href="#path-25"></use>
                </mask>
                <g id="path-3"></g>
                <path d="M26.307204,6.86779745 C24.8903397,2.8665448 21.0752614,1.74788251e-05 16.5875921,1.74788251e-05 C11.4407942,1.74788251e-05 7.17464113,3.78400833 6.40221933,8.71303702 C6.81640386,8.64312172 7.241603,8.60606661 7.67606841,8.60606661 C8.28012394,8.60536746 8.8590032,8.67598191 9.41497906,8.80934535 C9.42616851,8.81214196 9.43718312,8.81354026 9.44767324,8.81563772 C10.1454404,5.48766942 13.0882661,3.01598876 16.5875921,3.01598876 C19.502619,3.01598876 22.0599331,4.77330983 23.2120969,7.26369284 C23.2302797,7.30336977 23.2610507,7.31595453 23.2923462,7.30773948 C24.1597035,7.06950309 25.1996231,6.93054643 26.203177,7.00448186 C26.3009099,7.01217255 26.3386743,6.95711425 26.307204,6.86779745" id="Fill-19" fill="#006EFF" fill-rule="nonzero" mask="url(#mask-26)"></path>
            </g>
        </g>
    </g>
</svg>