<svg xmlns="http://www.w3.org/2000/svg" viewBox="0 0 90 24" width="90px" height="24px"  class="design-iconfont">
  <g fill="none" fill-rule="evenodd">
    <path d="M72.6581693,4.63305496 L72.6581693,18.5250646 L73.9414949,18.5250646 L73.9414949,19.832333 L71.2138645,19.832333 L71.2138645,12.0105086 L67.7598964,12.0105086 L67.7598964,20 L66.3152697,20 L66.3152697,12.0105086 L63.1843329,12.0105086 L63.1843329,10.7037741 L66.3152697,10.7037741 L66.3152697,5.9397894 L63.5832392,5.9397894 L63.5832392,4.63305496 L72.6581693,4.63305496 Z M62.0634889,8.77890386 L62.0634889,17.2736389 L64.4989958,15.437205 C64.5402923,15.4060211 64.5988973,15.4187168 64.6206875,15.4612943 L64.6292816,15.4986117 L64.6292816,16.9786732 L60.6456921,19.9822615 L59.8531382,18.94027 L60.6287356,18.3553579 L60.6287356,10.2163545 L58.6887225,10.2163545 L58.6887225,8.77890386 L62.0634889,8.77890386 Z M47.0693349,4.66593691 L47.0693349,19.9240586 L44.7323472,19.9240586 L44.3725052,18.7490015 C44.3456324,18.6766377 44.371784,18.6357825 44.4158485,18.6223349 L44.4517069,18.6173242 L45.7585355,18.6173242 L45.7585355,14.5546573 L43.9183294,14.5546573 C43.9113179,15.7881309 43.8608348,17.4570763 43.4966526,19.4591237 L43.4137135,19.8931951 L42.0971189,19.8931951 C42.0190977,19.8931951 41.9741308,19.8535744 42.0159854,19.7055576 C42.3867955,18.213827 42.579793,16.5432004 42.6038779,14.3951642 L42.6064568,13.9274547 L42.6064568,4.66593691 L47.0693349,4.66593691 Z M52.7816363,4 C52.8469938,4 52.8999023,4.01943655 52.8862727,4.11736688 C52.7929478,4.79333177 52.6919988,5.4105171 52.5799642,5.97849164 L52.4938056,6.39539503 L54.0738694,6.39539503 L54.5922222,4.64097909 L55.7101686,4.64097909 C55.7667259,4.64097909 55.812766,4.67461928 55.7870093,4.7615498 L55.3052524,6.39539503 L56.5922269,6.39539503 L56.5922269,7.57141332 L52.1989992,7.57141332 C52.1036995,7.89892458 52.0013973,8.2073931 51.8908248,8.49970231 L51.7774485,8.78673188 L56.9143998,8.78673188 L56.9143998,9.96285696 L55.1513564,9.96285696 C55.8873437,11.0019122 56.6672215,11.5498224 57.0880563,11.8152121 L57.2410801,11.9097161 L57.2410801,13.2551101 C57.2410801,13.3229245 57.1873131,13.394797 56.9736401,13.2741195 C56.4912547,13.0017026 55.9677111,12.6543554 55.4439648,12.2052442 L55.1822644,11.972084 L55.1286047,14.2589761 L56.7594306,14.2589761 L56.7594306,19.9216344 L52.5931834,19.9216344 L52.2332341,18.7465772 C52.2063613,18.6742135 52.2325129,18.6333583 52.2765774,18.6199107 L52.3124358,18.6148999 L55.3150185,18.6148999 L55.3150185,15.4349943 L48.6531656,15.4349943 C48.6179112,15.4349943 48.5904441,15.4158314 48.5789592,15.3871021 L48.5731053,15.3555394 L48.6973812,13.126423 L49.9321984,13.126423 C49.9673724,13.126423 49.9948797,13.1455259 50.0064349,13.1742702 L50.012366,13.205878 L49.9536623,14.2589761 L53.8149077,14.2589761 L53.8562256,12.4977253 L48.9654651,12.4977253 C48.5453096,12.806681 48.13052,13.0547641 47.7418091,13.2741195 C47.5548452,13.3797123 47.4902272,13.3378022 47.476994,13.2803161 L47.4742618,13.2551101 L47.4742618,11.9097161 L47.7105437,11.7621583 C48.1150374,11.4999185 48.7728877,11.014168 49.4175994,10.1652672 L49.5660246,9.96285696 L47.4869255,9.96285696 L47.4869255,8.78673188 L50.2549079,8.78673188 C50.3952012,8.4818877 50.5286127,8.15974284 50.6367605,7.86093586 L50.7358062,7.57141332 L47.8088837,7.57141332 L47.8088837,6.39539503 L49.0621599,6.39539503 L48.580403,4.7615498 C48.5598835,4.69200538 48.5851766,4.65656678 48.6251269,4.64517311 L48.657351,4.64097909 L49.7752974,4.64097909 L50.2934356,6.39539503 L51.0687111,6.39539503 C51.2138606,5.79245249 51.3325529,5.15457934 51.4433577,4.43900842 L51.5090426,4 L52.7816363,4 Z M90,10.4139132 L90,11.8513638 L81.1297281,11.8513638 L78.6902504,18.2419317 L87.0459257,18.2419317 L85.7162381,14.7587304 C85.7004407,14.7172088 85.7200157,14.6722015 85.7589735,14.6558594 L85.7915763,14.6494799 L87.3602643,14.6494799 L89.2392126,19.5652192 C89.256212,19.6096457 89.2376329,19.6559858 89.1991353,19.6727448 L89.166772,19.6792755 L76.5648966,19.6792755 C76.5094125,19.6792755 76.4675579,19.6319657 76.4904169,19.5684231 L79.4430961,11.8513638 L75.3896416,11.8513638 L75.3896416,10.4139132 L90,10.4139132 Z M54.6445834,16.3458105 L54.6445834,17.6525449 L47.4847683,17.6525449 L47.4847683,16.3458105 L54.6445834,16.3458105 Z M45.7585355,10.2512762 L43.9196173,10.2512762 L43.9196173,13.378639 L45.7585355,13.378639 L45.7585355,10.2512762 Z M53.5438188,9.96285696 L51.2060799,9.96285696 C50.9652551,10.3857622 50.7103501,10.7564493 50.4471342,11.083995 L50.2482541,11.321707 L54.5468261,11.321707 C54.1971794,10.9271022 53.858372,10.4778188 53.5438188,9.96285696 Z M71.2138645,5.9397894 L67.7598964,5.9397894 L67.7598964,10.7036673 L71.2138645,10.7036673 L71.2138645,5.9397894 Z M45.7585355,5.97267135 L45.7585355,9.07525791 L43.9196173,9.07525791 L43.9196173,5.97267135 L45.7585355,5.97267135 Z M60.4741849,4.34373865 L62.4653894,7.36975373 C62.4901158,7.40717444 62.4767223,7.46304919 62.4345501,7.48390226 L62.3976709,7.49213994 L60.8192169,7.49213994 L58.825544,4.46228027 C58.7991864,4.4222965 58.821526,4.37042013 58.8621769,4.35126893 L58.8956236,4.34373865 L60.4741849,4.34373865 Z M88.3945015,4.9818343 L88.3945015,6.41917811 L76.9951402,6.41917811 L76.9951402,4.9818343 L88.3945015,4.9818343 Z" fill="#000"/>
    <path d="M30.9886654,10.8842769 C29.5993736,9.47254615 27.6630024,8.58281532 25.5103468,8.58281532 C23.6494668,8.58258462 22.0474798,9.22204615 20.6488094,10.3570846 C20.0389752,10.8518538 19.3993845,11.4442385 18.5948017,12.2230846 C18.1951154,12.6098538 6.60838179,23.8139308 6.60838179,23.8139308 C7.21578451,23.9001231 8.05116586,23.9258538 8.79600416,23.9305846 C9.49383416,23.9348538 22.8065595,23.9335846 23.3638277,23.9335846 C24.4854271,23.9335846 25.215445,23.9323154 25.9995341,23.8752 C27.797775,23.7444692 29.4965574,23.0872385 30.8697553,21.7434692 C33.9191578,18.7591615 33.9650082,13.9156615 30.9886654,10.8842769 M28.7615607,19.5960462 C28.1705993,20.1788538 27.1165021,20.8408154 25.3861106,20.8993154 C24.5859276,20.9265462 23.6515509,20.9294308 23.2239607,20.9294308 L13.9262762,20.9294308 C17.3091365,17.6551615 20.2600068,14.7989308 20.5947383,14.4751615 C20.90145,14.1781615 21.5911751,13.5205846 22.1860732,12.9868154 C23.4920006,11.8148538 24.6679026,11.5790077 25.4992315,11.5867385 C26.8021486,11.5989692 27.9870818,12.1292769 28.8340415,12.9852 C30.6458291,14.8306615 30.602989,17.7800077 28.7615607,19.5960462" fill="#00A3FF" transform="translate(.000769 .00016)"/>
    <path d="M12.2944748,10.1638615 C10.9325079,9.14801538 9.40763299,8.58032308 7.67897829,8.58273843 C5.52632268,8.58273843 3.58983574,9.47247692 2.20054386,10.8843231 C-0.775683143,13.9157077 -0.72983269,18.7590923 2.31956978,21.7432846 C3.54386951,22.9415538 5.02706219,23.5934769 6.60878703,23.8135154 L9.59207686,20.9286692 C9.10972083,20.9267077 8.41744846,20.9201308 7.8030987,20.8993615 C6.07282302,20.8407462 5.01872574,20.1790154 4.42764856,19.5960923 C2.58622027,17.7800538 2.5433802,14.8305923 4.35528358,12.9850154 C5.20224334,12.1292077 6.38717651,11.5990154 7.68997776,11.5869 C8.50637055,11.5835538 9.61442316,11.8197462 10.8663953,12.8540538 C11.4640721,13.3477846 12.7910722,14.5102846 13.373234,15.0334385 C13.4028747,15.0600923 13.4385362,15.0624 13.4732714,15.0341308 L15.5273948,13.0367077 C15.5629405,13.0024385 15.5608564,12.9559385 15.5257739,12.9244385 C14.537905,12.0344769 13.1373821,10.7893615 12.2944748,10.1638615" fill="#00C8DC" transform="translate(.000769 .00016)"/>
    <path d="M26.3180095,6.84903462 C24.9005821,2.85915 21.0837635,-8.07692308e-05 16.5945873,-8.07692308e-05 C11.4450951,-8.07692308e-05 7.17776105,3.77357308 6.40490303,8.68907308 C6.8190623,8.61961154 7.24445262,8.58268846 7.67898986,8.58268846 C8.28349798,8.58188077 8.86253363,8.65226538 9.4189914,8.78565 C9.42987509,8.78795769 9.44075878,8.78922692 9.45152669,8.79188077 C10.1492409,5.47295769 13.0933958,3.00776538 16.5945873,3.00776538 C19.5104908,3.00776538 22.0686219,4.76045769 23.2219461,7.24411154 C23.2401241,7.28322692 23.2708069,7.29615 23.3023001,7.28749615 C24.1696379,7.05003462 25.2096095,6.91191923 26.2140355,6.98576538 C26.3118729,6.99291923 26.3495027,6.93799615 26.3180095,6.84903462" fill="#006EFF" transform="translate(.000769 .00016)"/>
  </g>
</svg>
